<?xml version="1.0" encoding="UTF-8" standalone="no"?>
<svg
   version="1.1"
   width="780"
   height="780"
   id="svg3"
   sodipodi:docname="unnamed.svg"
   inkscape:export-filename="duck.png"
   inkscape:export-xdpi="31.507692"
   inkscape:export-ydpi="31.507692"
   inkscape:version="1.3.2 (091e20e, 2023-11-25)"
   xmlns:inkscape="http://www.inkscape.org/namespaces/inkscape"
   xmlns:sodipodi="http://sodipodi.sourceforge.net/DTD/sodipodi-0.dtd"
   xmlns="http://www.w3.org/2000/svg"
   xmlns:svg="http://www.w3.org/2000/svg">
  <defs
     id="defs3" />
  <sodipodi:namedview
     id="namedview3"
     pagecolor="#ffffff"
     bordercolor="#666666"
     borderopacity="1.0"
     inkscape:showpageshadow="2"
     inkscape:pageopacity="0.0"
     inkscape:pagecheckerboard="0"
     inkscape:deskcolor="#d1d1d1"
     inkscape:export-bgcolor="#00000000"
     inkscape:zoom="0.41691663"
     inkscape:cx="372.97624"
     inkscape:cy="172.6964"
     inkscape:window-width="1432"
     inkscape:window-height="847"
     inkscape:window-x="0"
     inkscape:window-y="25"
     inkscape:window-maximized="0"
     inkscape:current-layer="svg3" />
  <path
     d="m 287.599,76.757189 c 1.06275,-0.0016 1.06275,-0.0016 2.14697,-0.0032 34.53623,0.07428 67.08802,10.80122 94.16553,32.440736 0.57798,0.45987 1.15597,0.91974 1.75147,1.39355 29.37076,23.64711 51.17396,57.01546 57.24853,94.60644 0.2272,2.64309 0.41994,5.28938 0.57812,7.9375 0.0631,1.02577 0.0631,1.02577 0.12745,2.07227 0.10177,1.66319 0.19862,3.32668 0.29443,4.99023 0.83958,-0.16605 1.67917,-0.33209 2.54419,-0.50317 28.27033,-5.57517 28.27033,-5.57517 39.08081,-7.30933 0.67587,-0.11126 1.35174,-0.22252 2.0481,-0.33716 13.25469,-2.04631 26.55884,-2.03667 39.93652,-2.03564 3.1856,-0.002 6.37085,-0.0204 9.5564,-0.0393 11.45918,-0.0325 22.51584,0.36363 33.83398,2.22461 1.13349,0.18232 2.26698,0.36464 3.43481,0.55249 3.27915,0.55209 6.54721,1.14544 9.81519,1.76001 1.1546,0.21511 2.30919,0.43022 3.49878,0.65186 8.73007,1.6635 17.32604,3.67685 25.91919,5.93408 3.62986,0.94774 7.26587,1.67552 10.95703,2.35156 17.14142,3.59482 34.15007,10.11268 49.375,18.75 0.85578,0.47985 1.71155,0.95971 2.59326,1.4541 11.41951,6.4432 22.38374,13.05938 32.40674,21.5459 0.81727,0.68965 1.63453,1.3793 2.47656,2.08984 2.56793,2.24589 5.04961,4.56091 7.52344,6.91016 0.55414,0.51627 1.10827,1.03254 1.6792,1.56445 23.57493,22.07338 40.7178,50.95169 48.3208,82.43555 0.16576,0.6657 0.33151,1.3314 0.50229,2.01727 3.03612,12.35656 4.15497,24.02959 3.99771,36.73273 -0.005,0.86786 -0.01,1.73572 -0.0148,2.62988 -0.091,13.86128 -1.15368,27.12232 -4.48523,40.62012 -0.17612,0.73992 -0.35224,1.47984 -0.53369,2.24219 -0.80639,3.37482 -1.65456,6.73179 -2.54444,10.08593 -0.91059,3.62697 -1.58647,7.23994 -2.23437,10.92188 -4.47558,22.66359 -15.06802,43.3769 -29.10254,61.58594 -3.63664,4.74933 -6.79287,9.64294 -9.83496,14.78906 -7.35355,12.21434 -15.56604,23.45938 -24.75,34.375 -0.80695,0.99258 -1.61391,1.98516 -2.44531,3.00781 -10.9684,13.40559 -23.11107,25.33488 -36.94483,35.74951 -2.55124,1.96935 -4.97746,4.08122 -7.42236,6.18018 -18.61998,15.57798 -39.81485,28.62844 -61.1875,40.0625 -0.86738,0.46648 -1.73476,0.93296 -2.62842,1.41357 -11.82584,6.33739 -23.71449,12.33764 -36.06006,17.59473 -2.49537,1.07058 -4.97777,2.16826 -7.45996,3.26904 -10.21969,4.50417 -20.44097,8.48859 -31.09131,11.84034 -3.23846,1.03518 -6.46166,2.11264 -9.68603,3.19091 -21.26882,7.07607 -42.95398,13.85509 -65.07422,17.69141 -0.98541,0.18264 -1.97082,0.36529 -2.98608,0.55347 -11.84676,1.90766 -23.72731,1.78365 -35.698,1.7622 -3.64859,-0.003 -7.29634,0.0203 -10.94483,0.0457 -15.66242,0.0426 -30.88377,-1.02884 -46.37109,-3.36133 -0.72882,-0.1094 -1.45765,-0.2188 -2.20856,-0.33151 -3.90531,-0.60138 -7.7873,-1.29286 -11.66644,-2.04349 -1.12454,-0.21568 -2.24909,-0.43135 -3.40771,-0.65356 -23.86838,-4.67998 -46.39433,-12.43397 -67.87549,-23.98267 -1.24663,-0.66926 -2.49813,-1.32951 -3.75391,-1.98145 -15.5497,-8.07508 -29.59849,-18.30544 -42.21972,-30.45019 -5.26653,-5.04722 -10.98485,-9.24556 -16.86817,-13.55713 -15.65225,-11.69071 -23.57036,-31.07257 -29.64063,-49.03906 -2.47032,-7.29616 -5.54016,-14.29063 -8.8977,-21.21851 -6.43687,-13.36834 -10.74853,-27.16175 -13.46167,-41.74243 -0.17273,-0.72413 -0.34547,-1.44826 -0.52344,-2.19434 -0.60211,-3.5448 -0.63841,-7.03014 -0.64453,-10.61425 -0.004,-0.75466 -0.009,-1.50932 -0.013,-2.28685 -0.01,-2.44742 -0.0101,-4.89463 -0.007,-7.34206 9.4e-4,-0.83574 0.002,-1.67147 0.003,-2.53253 0.0999,-41.04119 10.15941,-74.58377 28.65927,-110.9433 1.35623,-2.67483 2.57526,-5.23627 3.52539,-8.08667 -0.64582,0.29133 -1.29164,0.58266 -1.95703,0.88281 -6.45535,2.80821 -12.96297,5.17005 -19.66797,7.30469 -0.77448,0.24959 -1.54897,0.49919 -2.34692,0.75635 -9.45625,2.95514 -18.39786,4.36971 -28.30933,4.39209 -1.05296,0.007 -2.10593,0.0133 -3.1908,0.0202 -2.21861,0.0101 -4.43725,0.0148 -6.65588,0.0145 -3.33548,0.004 -6.66962,0.0407 -10.00487,0.0786 -14.566494,0.0762 -28.264584,-0.82705 -41.867194,-6.44922 -2.0562,-0.46622 -4.11947,-0.90192 -6.1875,-1.3125 -12.91468,-2.98589 -20.65568,-9.53697 -29.8125,-18.6875 -0.71672,-0.69352 -1.43344,-1.38703 -2.17187,-2.10156 -9.63758,-10.02138 -13.3929299,-23.50776 -13.1328199,-37.0625 1.4786599,-18.61593 9.5611699,-35.2732 23.3046899,-47.83594 2.35811,-1.90876 4.72677,-3.61012 7.28125,-5.24609 2.80284,-1.7569 2.80284,-1.7569 5.625,-3.97657 12.54459,-9.41223 27.52783,-14.3446 42.09375,-19.77734 1.03568,-0.39083 2.07136,-0.78166 3.13843,-1.18433 12.862544,-4.78807 26.359914,-6.65724 39.861564,-8.81567 0.0198,-0.63801 0.0396,-1.27601 0.0601,-1.93335 1.58027,-48.60819 14.08391,-89.78418 50.12774,-124.44171 19.60292,-17.57504 41.11253,-30.732226 66.75,-37.312501 0.78609,-0.202705 1.57217,-0.405411 2.38208,-0.614258 12.34957,-3.015959 24.67392,-4.139859 37.36792,-4.135742 z"
     fill="#ffd700"
     id="path2" />
  <path
     d="m 173.88611,239.82407 c 2.12649,-0.004 4.25084,-0.0407 6.37696,-0.0786 19.28954,-0.15728 36.40496,5.56168 51.64843,17.44922 1.35401,0.95856 2.70816,1.91692 4.0625,2.875 10.01248,7.65298 19.29901,17.34563 21.9375,30.125 0.86879,10.8341 1.35225,22.25486 -4,32 -0.38929,0.73605 -0.77859,1.47211 -1.17969,2.23047 -6.04491,10.10466 -15.90044,18.25637 -24.82031,25.76953 -0.98742,0.85335 -1.97484,1.70671 -2.99219,2.58593 -11.56951,9.97081 -23.48108,18.31639 -37.00781,25.41407 -1.07483,0.56702 -1.07483,0.56702 -2.17138,1.1455 -19.38249,10.07632 -41.07771,18.14068 -63.10987,18.19043 -1.05296,0.007 -2.10592,0.0133 -3.19079,0.0202 -2.21861,0.0101 -4.43725,0.0148 -6.65589,0.0145 -3.33548,0.004 -6.66962,0.0407 -10.00488,0.0786 -14.566483,0.0762 -28.26457,-0.82704 -41.867184,-6.44921 -2.0562,-0.46622 -4.11947,-0.90192 -6.1875,-1.3125 -12.91468,-2.98589 -20.65567,-9.53698 -29.8125,-18.6875 -1.07508,-1.04028 -1.07508,-1.04028 -2.17187,-2.10157 -9.63758,-10.02137 -13.3929299,-23.50775 -13.1328199,-37.06249 1.4786599,-18.61593 9.5611699,-35.2732 23.3046899,-47.83594 2.35811,-1.90876 4.72677,-3.61012 7.28125,-5.24609 2.80284,-1.7569 2.80284,-1.7569 5.625,-3.97657 12.55282,-9.4184 27.52831,-14.32257 42.093751,-19.77734 0.949394,-0.37415 1.898789,-0.7483 2.876953,-1.13379 13.08481,-5.04919 27.08688,-6.76279 40.87304,-8.92871 3.22437,-0.50919 6.44822,-1.0215 9.67188,-1.53516 0.77026,-0.12125 1.54053,-0.2425 2.33413,-0.36743 3.83008,-0.6111 7.59806,-1.31302 11.3768,-2.19507 6.21038,-1.28563 12.52623,-1.2119 18.8418,-1.21047 z"
     fill="#ff6347"
     id="path3" />
</svg>
