<?xml version="1.0" encoding="UTF-8" standalone="no"?>
<svg
   version="1.1"
   width="256"
   height="256"
   id="svg3"
   sodipodi:docname="hat.svg"
   inkscape:version="1.3.2 (091e20e, 2023-11-25)"
   inkscape:export-filename="hat.png"
   inkscape:export-xdpi="96"
   inkscape:export-ydpi="96"
   xmlns:inkscape="http://www.inkscape.org/namespaces/inkscape"
   xmlns:sodipodi="http://sodipodi.sourceforge.net/DTD/sodipodi-0.dtd"
   xmlns="http://www.w3.org/2000/svg"
   xmlns:svg="http://www.w3.org/2000/svg">
  <defs
     id="defs3" />
  <sodipodi:namedview
     id="namedview3"
     pagecolor="#ffffff"
     bordercolor="#666666"
     borderopacity="1.0"
     inkscape:showpageshadow="2"
     inkscape:pageopacity="0.0"
     inkscape:pagecheckerboard="0"
     inkscape:deskcolor="#d1d1d1"
     inkscape:zoom="2.4634883"
     inkscape:cx="140.65421"
     inkscape:cy="138.4216"
     inkscape:window-width="1440"
     inkscape:window-height="847"
     inkscape:window-x="0"
     inkscape:window-y="25"
     inkscape:window-maximized="0"
     inkscape:current-layer="svg3" />
  <path
     d="m 120.08267,50.426484 c 0.95539,0.303829 0.95539,0.303829 1.93008,0.613796 15.92956,5.15025 30.62617,13.233339 43.97435,23.318915 5.76841,4.317716 11.35051,5.9155 18.28703,7.541098 25.05407,5.92228 49.18569,17.154298 63.19913,39.881947 7.34448,13.41273 9.96,28.20967 5.74799,43.10777 -4.35568,13.40547 -12.76775,23.4893 -25.16578,30.05052 -5.49183,2.59099 -11.01334,4.39697 -16.94419,5.65625 -0.852,0.18332 -1.704,0.36664 -2.58182,0.55552 -4.87065,0.63733 -9.7022,0.67181 -14.60972,0.68761 -1.05209,0.004 -2.10418,0.008 -3.18815,0.0119 -7.59303,-0.0559 -14.55913,-0.89693 -21.92666,-2.68852 -5.49472,-0.95152 -9.72571,0.55582 -14.8909,2.44693 -33.96053,12.35374 -69.609182,10.20061 -102.358884,-4.70326 -13.209729,-6.24299 -25.030997,-13.93992 -36.353279,-23.16182 -1.411925,-1.09802 -1.411925,-1.09802 -2.852374,-2.21822 -10.3315307,-8.06835 -10.3315307,-8.06835 -11.9274084,-14.37759 0.2806347,-4.19189 2.255056,-6.15449 5.1945679,-9.0127 10.4067735,-8.77775 22.4276075,-15.60921 34.3212515,-22.12775 -0.45406,-0.72303 -0.908121,-1.44607 -1.375942,-2.19102 C 30.706068,110.87888 25.588321,96.927285 29.177728,81.7534 30.833227,76.186095 33.372293,71.852695 36.96958,67.333073 37.444048,66.731825 37.918516,66.130577 38.407362,65.511109 57.922041,43.568568 94.108535,41.76645 120.08267,50.426484 Z"
     fill="#37B348"
     id="path1"
     style="fill:#0f80cc;fill-opacity:1;stroke-width:0.99197" />
  <path
     d="M0 0 C16.59630893 8.66002209 27.35075718 21.94394937 34.125 39.125 C36.24760113 47.19582058 36.48753248 56.17848707 32.29296875 63.5390625 C29.84018782 66.86959446 29.84018782 66.86959446 28.125 68.125 C23.37906409 68.04202909 19.73007108 65.25589102 15.875 62.75 C15.18116211 62.30736816 14.48732422 61.86473633 13.77246094 61.40869141 C11.55150917 59.98861624 9.33806724 58.55732488 7.125 57.125 C5.65650517 56.18189422 4.18775697 55.23918285 2.71875 54.296875 C-0.15803138 52.45027495 -3.01973244 50.58277653 -5.875 48.703125 C-8.35366013 47.07991067 -10.8487147 45.54986163 -13.4375 44.109375 C-20.30411077 40.10385205 -23.78197792 36.51950356 -26.1640625 28.8359375 C-27.73336866 20.64450424 -29.04036292 10.75350656 -24.6875 3.25 C-17.76078639 -5.33142853 -9.34172197 -4.37667416 0 0 Z "
     fill="#F8FCF9"
     transform="translate(81.875,91.875)"
     id="path2" />
  <path
     d="M0 0 C6.60269192 0.75052182 10.28945673 3.4629574 15 8 C21.26465968 16.10110839 21.72616749 24.0463709 21 34 C20.35666622 38.1128994 19.65777043 42.1659795 18 46 C16.515 46.495 16.515 46.495 15 47 C15 45.35 15 43.7 15 42 C15.33 42 15.66 42 16 42 C16.45537357 36.42167375 15.56216264 31.57427043 14.125 26.1875 C13.95129883 25.52935303 13.77759766 24.87120605 13.59863281 24.19311523 C12.71971317 21.03201008 11.83803122 18.75704684 10 16 C10.27714844 16.73605469 10.55429688 17.47210938 10.83984375 18.23046875 C11.20207031 19.20628906 11.56429687 20.18210937 11.9375 21.1875 C12.29714844 22.15042969 12.65679687 23.11335938 13.02734375 24.10546875 C14.47588246 28.41618033 15.13029567 32.27019019 15.0625 36.8125 C15.05347656 37.60269531 15.04445313 38.39289063 15.03515625 39.20703125 C15.02355469 39.79871094 15.01195313 40.39039063 15 41 C9.56117044 39.30036576 3.83857381 35.83791874 0.69921875 30.9921875 C0 29 0 29 1 26 C1.66 26 2.32 26 3 26 C2.33484375 25.57203125 1.6696875 25.1440625 0.984375 24.703125 C-2.20212848 20.3624549 -1.16517072 15.94292902 -0.75 10.75 C-0.68425781 9.71875 -0.61851563 8.6875 -0.55078125 7.625 C-0.38592189 5.08145555 -0.20169465 2.54084512 0 0 Z "
     fill="#33AE4A"
     transform="translate(74,98)"
     id="path3"
     style="fill:#0f80cc;fill-opacity:1" />
</svg>
