<?xml version="1.0" encoding="UTF-8" standalone="no"?>
<svg
   version="1.1"
   width="256"
   height="256"
   id="svg3"
   sodipodi:docname="Ph03nyx-Super-Mario-Hat-Luigi.256.svg"
   inkscape:version="1.3.2 (091e20e, 2023-11-25)"
   inkscape:export-filename="Ph03nyx-Super-Mario-Hat-Luigi.256.png"
   inkscape:export-xdpi="96"
   inkscape:export-ydpi="96"
   xmlns:inkscape="http://www.inkscape.org/namespaces/inkscape"
   xmlns:sodipodi="http://sodipodi.sourceforge.net/DTD/sodipodi-0.dtd"
   xmlns="http://www.w3.org/2000/svg"
   xmlns:svg="http://www.w3.org/2000/svg">
  <defs
     id="defs3" />
  <sodipodi:namedview
     id="namedview3"
     pagecolor="#ffffff"
     bordercolor="#666666"
     borderopacity="1.0"
     inkscape:showpageshadow="2"
     inkscape:pageopacity="0.0"
     inkscape:pagecheckerboard="0"
     inkscape:deskcolor="#d1d1d1"
     inkscape:zoom="0.91837525"
     inkscape:cx="133.38774"
     inkscape:cy="124.13227"
     inkscape:window-width="1312"
     inkscape:window-height="449"
     inkscape:window-x="0"
     inkscape:window-y="25"
     inkscape:window-maximized="0"
     inkscape:current-layer="svg3" />
  <path
     d="m 120.12141,50.93957 c 0.95062,0.301809 0.95062,0.301809 1.92044,0.609716 15.84988,5.116016 30.47298,13.145377 43.7544,23.163913 5.73956,4.289016 11.29373,5.87618 18.19557,7.490972 24.92875,5.882914 48.93967,17.040273 62.88302,39.616849 7.30775,13.32358 9.91019,28.02216 5.71924,42.82123 -4.33389,13.31637 -12.70389,23.33317 -25.03991,29.85078 -5.46436,2.57376 -10.95825,4.36774 -16.85943,5.61865 -0.84774,0.1821 -1.69548,0.36421 -2.56891,0.55183 -4.8463,0.63309 -9.65368,0.66734 -14.53665,0.68304 -1.04683,0.004 -2.09366,0.008 -3.1722,0.0118 -7.55505,-0.0556 -14.48631,-0.89096 -21.817,-2.67064 -5.46723,-0.9452 -9.67706,0.55212 -14.81642,2.43066 -33.79067,12.27163 -69.261018,10.13281 -101.846918,-4.67199 -13.143658,-6.2015 -24.9058,-13.84726 -36.171452,-23.00787 -1.404863,-1.09072 -1.404863,-1.09072 -2.838108,-2.20347 -10.2798556,-8.01472 -10.2798556,-8.01472 -11.8677513,-14.28202 0.279231,-4.16403 2.243777,-6.11359 5.1685865,-8.9528 10.3547218,-8.7194 22.3154328,-15.50545 34.1495888,-21.98066 -0.45179,-0.71823 -0.903579,-1.43646 -1.36906,-2.17645 -7.816602,-12.85298 -12.908752,-26.711841 -9.337297,-41.784866 1.647218,-5.530298 4.173585,-9.834894 7.752879,-14.324474 0.472095,-0.597251 0.94419,-1.194503 1.430591,-1.809854 C 58.271693,44.127238 94.277195,42.3371 120.12141,50.93957 Z"
     fill="#37b348"
     id="path1"
     style="stroke-width:0.986192;fill:#0f80cc;fill-opacity:1" />
  <path
     d="M0 0 C16.59630893 8.66002209 27.35075718 21.94394937 34.125 39.125 C36.24760113 47.19582058 36.48753248 56.17848707 32.29296875 63.5390625 C29.84018782 66.86959446 29.84018782 66.86959446 28.125 68.125 C23.37906409 68.04202909 19.73007108 65.25589102 15.875 62.75 C15.18116211 62.30736816 14.48732422 61.86473633 13.77246094 61.40869141 C11.55150917 59.98861624 9.33806724 58.55732488 7.125 57.125 C5.65650517 56.18189422 4.18775697 55.23918285 2.71875 54.296875 C-0.15803138 52.45027495 -3.01973244 50.58277653 -5.875 48.703125 C-8.35366013 47.07991067 -10.8487147 45.54986163 -13.4375 44.109375 C-20.30411077 40.10385205 -23.78197792 36.51950356 -26.1640625 28.8359375 C-27.73336866 20.64450424 -29.04036292 10.75350656 -24.6875 3.25 C-17.76078639 -5.33142853 -9.34172197 -4.37667416 0 0 Z "
     fill="#FBFDFB"
     transform="translate(81.875,91.875)"
     id="path2" />
  <path
     d="M0 0 C5.445 1.485 5.445 1.485 11 3 C11 10.92 11 18.84 11 27 C13.475 27.99 13.475 27.99 16 29 C17.76941898 29.98679135 19.51985989 31.00835775 21.25 32.0625 C22.12140625 32.58972656 22.9928125 33.11695313 23.890625 33.66015625 C26 35 26 35 27 36 C27.07205511 37.68608966 27.08386068 39.37500659 27.0625 41.0625 C27.05347656 41.98160156 27.04445313 42.90070313 27.03515625 43.84765625 C27.02355469 44.55792969 27.01195313 45.26820313 27 46 C21.70042929 44.51079567 17.4353687 42.08052106 12.8125 39.1875 C12.10158203 38.76146484 11.39066406 38.33542969 10.65820312 37.89648438 C5.61409986 34.75993474 2.83156702 32.15283968 1.26953125 26.23046875 C-0.05232363 17.42940082 -0.20499668 8.87180083 0 0 Z "
     fill="#3BB44C"
     transform="translate(71,99)"
     id="path3"
     style="fill:#0f80cc;fill-opacity:1" />
</svg>
